/* XPM */
static char *yicon48-8[] = {
/* width height ncolors chars_per_pixel */
"48 48 8 1",
/* colors */
"  c #000000",
". c #A7A686",
"X c #575844",
"o c #393829",
"O c #F3F4DC",
"+ c #78775C",
"@ c #D0D0B1",
"# c #E2E3C8",
/* pixels */
"                                                ",
"                        X                       ",
"                   +......+++X                  ",
"                X.@........++++X                ",
"               .@@@@@@@@...+++++XX              ",
"             .@@@@@@@@@@@...++++XXX             ",
"            .@@@@@@@@@@@@@....++XXXX            ",
"           @@@@@@######@@@@....++XXXX           ",
"          @#############@@@@....++XXXX          ",
"         @######OO######@@@@@....+XXXXo         ",
"        .######OOOOOO###@@@@@@...++XXXXo        ",
"        #####OOOOOOOOO###@@@@@@...+XXXXo        ",
"       .####OOOOOOOOOOO##@@@@@@...++XXXX        ",
"       ####OOOOOOOOOOO####@@@@@@..++XXXXo       ",
"       ###OOOOOOOOOOOOO####@@@@...++XXXXo       ",
"      X#####OOOOOOOOOOO####@@@@@..++XXXXX       ",
"      +@###OOOOOOOOOOOO###@@@@@@..++XXXXX       ",
"      +@##OOOOOOOOOO#########@@...++XXXXX       ",
"      +@@#OOOOOOOOOO#########@@...++XXXXo       ",
"      X#@#OOOOOOOO#########O#@....+++XXXo       ",
"       ###OOOOOOOOOOOOO####@@......+++XXo       ",
"       ##OOOO#@@@.@#OOO###@.........+++XX       ",
"       ##OO@+++++++.@##@#@..+XXXX+++..+Xo       ",
"       ###.++++++++.@#@@#@.+XXXXXXXX+.+Xo       ",
"       @#.+++++++o++@##OO++XXoooooX+...XX       ",
"       +#.+++++..X +.OOO#++XXooooX+.@@#.X       ",
"        O@++......o @OOO@+XXXo oX+.@##O@X       ",
"        O#++...@@@+oOOO#@+XXX ooX+.@#OO.X       ",
"        O#+....@@..#OO##@+XXXooo+.@#OOO.X       ",
"        OO.+...++.#OOO.ooXXXXXXo+.@#OOO+o       ",
"       +OO@+.+oX@##OO#Xooo+XXXX+XXX@###Xo       ",
"      +#OOO@+..@@#OOO.oooo+XX+X++++@@@.Xoo      ",
"       #OOOOOO##OOOOOXooooX+X+......@.+XXo      ",
"       @OOOO#OOOOOOO#oooooo.X+........+XX       ",
"        #OOOO#@.@#OO.ooooo+@X++++.....+XX       ",
"        @OO####@O#OO.XooXo@@++X+...@..+Xo       ",
"         @#@@###OOOO+ooo+ X.+X+...@@.+Xo        ",
"          ++.@#OOOO#.  X+  .X++....+++Xo        ",
"              @OOOOO#Xo.+X+@X++.++X             ",
"               #OOOOO@.@.+@.X++++o              ",
"               .OOOOOOOO++..X+++X               ",
"                OOOOOOOO...@.++Xo               ",
"                OOOOOOOO@..@@X+Xo               ",
"                #O##OO#O#@..@XXXo               ",
"                #OO#OO#@#@..@+XX                ",
"                .@@#O#.@#.+++  o                ",
"                                                ",
"                                                "
};
